#!OML:ASF E:\Mandelcareful walks\Project 1\Capture day 1\Session 1\Subject1.ASF
:FULLY-SPECIFIED
:DEGREES
694
root 17.0487 14.9198 -15.6701 -959.466 -82.4939 -113.305
lowerback 15.4504 -3.03527 8.71336
upperback 4.68459 -2.86726 2.20584
thorax -3.92982 -1.56139 -2.02891
lowerneck -23.027 13.0473 6.55983
upperneck 20.9701 21.3321 -19.7042
head 14.2112 7.32815 -4.41593
rclavicle -1.52567e-014 -3.97569e-015
rhumerus -45.036 28.8413 -78.6887
rradius 60.4751
rwrist -6.74604
rhand -8.31307 -17.1769
rfingers 7.12502
rthumb 17.6076 -46.3996
lclavicle -1.52567e-014 -3.97569e-015
lhumerus -41.7887 -21.7228 94.365
lradius 56.9976
lwrist 19.7749
lhand -29.5411 -2.93642
lfingers 7.12502
lthumb -2.87432 27.024
rfemur -31.6166 -8.82582 21.3379
rtibia 54.7492
rfoot -25.0316 -5.76209
rtoes -15.3008
lfemur -12.7064 10.8559 -16.2944
ltibia 92.2675
lfoot -8.51652 12.621
ltoes 0.628464
695
root 16.4505 14.9497 -15.6691 -965.22 -81.9667 -107.544
lowerback 15.4948 -2.478 9.11649
upperback 4.50501 -2.04462 2.41086
thorax -4.06485 -1.16696 -2.19181
lowerneck -22.7225 12.7121 6.78513
upperneck 21.5718 20.8228 -19.441
head 14.3021 7.14533 -4.50925
rclavicle 3.52843e-015 -4.77145e-014
rhumerus -42.3814 29.3004 -77.8553
rradius 60.1063
rwrist -5.42483
rhand -10.6757 -16.6527
rfingers 7.12502
rthumb 15.3329 -46.0643
lclavicle 3.52843e-015 -4.77145e-014
lhumerus -44.7095 -21.5638 95.2401
lradius 55.9243
lwrist 19.3506
lhand -29.7563 -2.81758
lfingers 7.12502
lthumb -3.08216 27.1399
rfemur -27.8304 -8.32351 21.628
rtibia 53.2392
rfoot -26.4676 -6.67024
rtoes -13.4241
lfemur -19.3463 11.8065 -15.2939
ltibia 96.1382
lfoot -10.4503 11.5487
ltoes 1.28269
696
root 15.8339 15.0104 -15.6549 -970.736 -81.6079 -102.088
lowerback 15.2967 -1.84536 9.49535
upperback 4.49423 -1.17859 2.36197
thorax -3.88183 -0.734694 -2.62802
lowerneck -23.4844 12.34 6.31653
upperneck 22.8037 20.2435 -17.9112
head 14.5734 6.92927 -3.97911
rclavicle -4.79879e-015 2.32267e-014
rhumerus -40.3575 28.4884 -77.1854
rradius 61.1345
rwrist -5.0506
rhand -11.1496 -16.5226
rfingers 7.12502
rthumb 14.8764 -45.9685
lclavicle -4.79879e-015 2.32267e-014
lhumerus -47.7946 -22.1788 95.7501
lradius 56.274
lwrist 19.6105
lhand -27.6551 -0.477832
lfingers 7.12502
lthumb -1.05279 29.4993
rfemur -23.5787 -8.13419 21.7871
rtibia 50.8448
rfoot -26.7628 -8.79442
rtoes -13.9577
lfemur -25.7834 12.4494 -15.0884
ltibia 97.9078
lfoot -11.4264 11.6524
ltoes 2.918
697
root 15.1937 15.1226 -15.6264 -977.118 -81.5299 -95.4826
lowerback 14.6754 -1.25141 9.56586
upperback 4.43834 -0.450187 2.18786
thorax -3.52399 -0.355647 -2.99545
lowerneck -24.3085 11.8478 6.07832
upperneck 23.5816 19.4954 -17.027
head 14.7949 6.6121 -3.76392
rclavicle 7.25564e-015 3.49861e-014
rhumerus -39.3967 27.3145 -76.5742
rradius 63.4855
rwrist -5.14376
rhand -9.10099 -17.9152
rfingers 7.12502
rthumb 16.8492 -47.2042
lclavicle 7.25564e-015 3.49861e-014
lhumerus -51.1028 -23.1511 96.2792
lradius 57.4342
lwrist 19.3461
lhand -25.7797 -4.46178
lfingers 7.12502
lthumb 0.758485 25.5166
rfemur -19.008 -8.03223 21.6431
rtibia 47.2652
rfoot -26.7821 -9.8198
rtoes -16.5472
lfemur -32.1278 12.4915 -15.8495
ltibia 97.5106
lfoot -13.9666 12.4306
ltoes -2.43635
698
root 14.5222 15.2567 -15.5849 -982.76 -81.3595 -89.3549
lowerback 13.5801 -0.632599 9.33632
upperback 4.3123 0.230851 2.13585
thorax -2.98706 0.00937257 -3.04166
lowerneck -24.9076 11.4772 6.2065
upperneck 24.0638 19.0506 -17.1786
head 15.1126 6.34583 -3.95686
rclavicle 1.92573e-015 -7.95139e-016
rhumerus -39.1419 27.2986 -76.7173
rradius 65.9897
rwrist -9.08485
rhand -10.6772 -18.5211
rfingers 7.12502
rthumb 15.3315 -47.9328
lclavicle 1.92573e-015 -7.95139e-016
lhumerus -54.508 -23.8976 97.1317
lradius 58.7245
lwrist 18.2344
lhand -23.4697 -6.27806
lfingers 7.12502
lthumb 2.98951 23.6807
rfemur -14.3661 -7.53501 21.531
rtibia 43.0469
rfoot -26.0374 -9.53953
rtoes -19.8824
lfemur -37.3683 11.889 -16.6056
ltibia 95.0216
lfoot -16.5175 12.646
ltoes 0.932237
699
root 13.8089 15.456 -15.5278 -988.167 -81.4626 -83.6073
lowerback 12.3713 0.0597349 8.52497
upperback 4.19632 0.937011 2.10338
thorax -2.39029 0.389315 -2.72181
lowerneck -25.9373 10.9278 5.29426
upperneck 25.3628 18.4276 -15.89
head 15.5174 6.02664 -3.44922
rclavicle 2.0655e-015 -7.1314e-015
rhumerus -39.5202 27.3133 -76.9024
rradius 68.3656
rwrist -12.7813
rhand -11.761 -18.3305
rfingers 7.12502
rthumb 14.2873 -47.819
lclavicle 2.0655e-015 -7.1314e-015
lhumerus -57.9592 -24.7238 98.3716
lradius 59.8476
lwrist 16.8438
lhand -21.4583 -8.30464
lfingers 7.12502
lthumb 4.93188 21.618
rfemur -9.16768 -6.65281 21.0058
rtibia 38.1693
rfoot -23.7231 -9.1691
rtoes -21.658
lfemur -41.1847 11.3649 -17.7102
ltibia 90.5232
lfoot -18.3479 12.7352
ltoes 1.41606
700
root 13.078 15.6623 -15.4577 -993.34 -81.4588 -77.9548
lowerback 10.9187 0.81398 7.56665
upperback 4.00288 1.72007 2.15031
thorax -1.75571 0.80449 -2.21623
lowerneck -26.4576 10.2989 4.46209
upperneck 26.258 17.6506 -14.8264
head 15.6786 5.68502 -3.07916
rclavicle 4.11919e-014 3.38928e-014
rhumerus -40.4958 27.2135 -77.154
rradius 70.8356
rwrist -16.5403
rhand -12.6014 -17.9545
rfingers 7.12502
rthumb 13.4774 -47.4985
lclavicle 4.11919e-014 3.38928e-014
lhumerus -61.2491 -25.4148 99.5351
lradius 61.5742
lwrist 17.1176
lhand -18.3973 -8.38683
lfingers 7.12502
lthumb 7.88687 21.446
rfemur -4.143 -5.678 20.5403
rtibia 33.022
rfoot -19.7372 -9.06486
rtoes -22.4102
lfemur -44.3518 10.6542 -18.7397
ltibia 84.4123
lfoot -19.6504 12.9452
ltoes 1.3294
701
root 12.3396 15.8691 -15.3746 -996.996 -81.1988 -73.6697
lowerback 9.47433 1.63441 6.74859
upperback 3.69224 2.64366 2.21925
thorax -1.25041 1.28109 -1.75082
lowerneck -27.5957 9.6554 3.23011
upperneck 27.717 16.9696 -13.2897
head 16.1675 5.33964 -2.4156
rclavicle -8.59744e-015 -4.77083e-015
rhumerus -41.8035 26.6458 -77.4113
rradius 73.2517
rwrist -19.446
rhand -12.8899 -17.1118
rfingers 7.12502
rthumb 13.1994 -46.6739
lclavicle -8.59744e-015 -4.77083e-015
lhumerus -64.6216 -26.1874 100.794
lradius 63.3214
lwrist 17.8325
lhand -16.4177 -9.17579
lfingers 7.12502
lthumb 9.79715 20.5763
rfemur 0.72581 -4.74279 20.3354
rtibia 27.4852
rfoot -14.2841 -8.74106
rtoes -22.1416
lfemur -46.76 10.2226 -19.4181
ltibia 77.0396
lfoot -20.1741 12.6185
ltoes -2.31774
702
root 11.5686 16.1004 -15.2772 -999.328 -80.8366 -70.6735
lowerback 7.77497 2.4418 6.06387
upperback 3.47103 3.55586 2.20853
thorax -0.518403 1.75868 -1.39086
lowerneck -28.0117 9.11422 3.12367
upperneck 28.4467 16.264 -13.0383
head 16.4866 5.00845 -2.47754
rclavicle -5.71754e-014 -1.71452e-014
rhumerus -42.963 26.0474 -77.7114
rradius 75.1447
rwrist -21.0733
rhand -12.6622 -15.9008
rfingers 7.12502
rthumb 13.4188 -45.4486
lclavicle -5.71754e-014 -1.71452e-014
lhumerus -67.7851 -27.0742 101.932
lradius 65.0708
lwrist 19.2792
lhand -15.3819 -9.9986
lfingers 7.12502
lthumb 10.7964 19.7039
rfemur 5.0827 -4.0141 20.2332
rtibia 21.8063
rfoot -6.71173 -9.06462
rtoes -21.3868
lfemur -48.0444 10.2846 -19.9432
ltibia 68.7061
lfoot -20.0453 12.032
ltoes 0.46212
703
root 10.7745 16.3155 -15.1654 -999.45 -80.4288 -69.6735
lowerback 5.45248 3.25822 5.56836
upperback 3.34552 4.46533 2.08863
thorax 0.667903 2.2466 -1.15974
lowerneck -29.3917 8.54794 2.05333
upperneck 29.6709 15.6338 -11.5978
head 17.018 4.70544 -1.8356
rclavicle 1.80521e-014 -9.08197e-015
rhumerus -43.7972 25.7509 -78.1556
rradius 76.4812
rwrist -21.9943
rhand -12.0345 -14.6583
rfingers 7.12502
rthumb 14.0237 -44.1652
lclavicle 1.80521e-014 -9.08197e-015
lhumerus -70.5448 -28.0171 102.777
lradius 66.6969
lwrist 20.4797
lhand -14.8989 -10.62
lfingers 7.12502
lthumb 11.2623 19.0577
rfemur 9.42445 -3.71712 20.0649
rtibia 15.5991
rfoot 1.41395 -10.7344
rtoes -15.9471
lfemur -48.9052 10.8549 -20.4613
ltibia 60.153
lfoot -19.3915 11.6121
ltoes 1.22463
